<?xml version="1.0" encoding="UTF-8" standalone="no"?>
<!DOCTYPE svg PUBLIC "-//W3C//DTD SVG 1.1//EN" "http://www.w3.org/Graphics/SVG/1.1/DTD/svg11.dtd">
<svg width="100%" height="100%" viewBox="0 0 1024 1024" version="1.1" xmlns="http://www.w3.org/2000/svg" xmlns:xlink="http://www.w3.org/1999/xlink" xml:space="preserve" xmlns:serif="http://www.serif.com/" style="fill-rule:evenodd;clip-rule:evenodd;stroke-linejoin:round;stroke-miterlimit:2;">
    <g transform="matrix(1.04918,0,0,1.04171,-16.7869,-21.8759)">
        <path d="M992,266.75L992,758.25C992,893.883 882.667,1004 748,1004L260,1004C125.333,1004 16,893.883 16,758.25L16,266.75C16,131.117 125.333,21 260,21L748,21C882.667,21 992,131.117 992,266.75Z" style="fill:rgb(25,25,25);"/>
    </g>
    <g>
        <g transform="matrix(1.55284,0,0,1.55284,-271.857,-214.715)">
            <path d="M478.452,583.599C348.403,566.259 315.953,423.268 394.775,344.915C402.094,337.64 455.027,300.309 467.638,265.618C478.652,235.322 470.26,169.998 465.843,166.614C543.011,198.607 570.133,265.855 570.858,282.273C571.275,291.715 548.111,384.271 557.706,394.47C557.718,394.444 589.271,332.787 624.749,311.917C624.749,369.355 667.781,423.976 635.86,505.602C634.044,510.245 619.093,548.477 603.001,558.55C582.085,571.643 537.204,583.184 531.29,584.704L531.489,582.704C596.747,468.503 452.934,421.038 500.365,361.749L499.365,360.749C475.461,380.227 472.493,377.221 455.299,402.585C418.328,457.119 430.665,495.631 433.187,503.502C444.118,537.626 472.935,576.048 477.247,581.798L478.452,583.599Z" style="fill:rgb(136,18,34);"/>
        </g>
        <g>
            <path d="M129.517,807.365C124.684,788.031 127.295,785.166 145.94,778.368C180.307,765.836 216.683,747.918 321.946,749.402C393.002,750.405 499.219,803.381 585.307,827.426C726.851,866.961 845.606,767.547 864.705,765.744C873.314,764.931 887.899,777.087 872.775,794.022C845.185,824.915 709.522,876.64 630.871,868.418C544.644,859.404 375.022,783.058 304.195,779.727C254.18,777.375 174.266,804.404 163.381,808.086C143.607,814.773 139.299,821.545 127.356,804.483L129.517,807.365Z" style="fill:rgb(136,18,34);"/>
            <g transform="matrix(1,0,0,1,0,127)">
                <path d="M129.517,807.365C124.684,788.031 127.295,785.166 145.94,778.368C180.307,765.836 216.683,747.918 321.946,749.402C393.002,750.405 499.219,803.381 585.307,827.426C726.851,866.961 845.606,767.547 864.705,765.744C873.314,764.931 887.899,777.087 872.775,794.022C845.185,824.915 709.522,876.64 630.871,868.418C544.644,859.404 375.022,783.058 304.195,779.727C254.18,777.375 174.266,804.404 163.381,808.086C143.607,814.773 139.299,821.545 127.356,804.483L129.517,807.365Z" style="fill:rgb(136,18,34);"/>
            </g>
        </g>
    </g>
</svg>
